<?xml version="1.0" encoding="utf-8" standalone="yes"?>
<!DOCTYPE svg PUBLIC "-//W3C//DTD SVG 1.1//EN" "http://www.w3.org/Graphics/SVG/1.1/DTD/svg11.dtd">
<svg width="269" height="427" viewBox="0 0 269 427" style="fill:none;stroke:none;fill-rule:evenodd;clip-rule:evenodd;stroke-linecap:round;stroke-linejoin:round;stroke-miterlimit:1.5;" version="1.1" xmlns="http://www.w3.org/2000/svg" xmlns:xlink="http://www.w3.org/1999/xlink"><style id="fontImports">@import url("https://fonts.googleapis.com/css2?family=Shantell+Sans:wght@300..800&amp;display=block");</style><g id="items" style="isolation: isolate"><g id="blend" style="mix-blend-mode:normal"><g id="g-root-comp_1hitonns2ku10-fill" data-item-order="1000000000" transform="translate(13.126708984375, 3)"></g><g id="g-root-tx_webdesig_13z8x03s286wx-fill" data-item-order="1000000000" transform="translate(102.1402587890625, 24.38006591796875)"><g id="tx_webdesig_13z8x03s286wx-fill" stroke="none" fill="#FFFFFF"><g><text style="font: 20px &quot;Shantell Sans&quot;, cursive; white-space: pre;" font-size="20px" font-family="'Shantell Sans', cursive"><tspan x="12" y="35.6" dominant-baseline="ideographic">Web Design</tspan></text></g></g></g><g id="g-root-page_4lov0zs29lvu-fill" data-item-order="1000000000" transform="translate(13.126708984375, 114.2669677734375)"></g><g id="g-root-tx_webrebra_1lrrvo3s286pz-fill" data-item-order="1000000000" transform="translate(102.1402587890625, 123.64703369140625)"><g id="tx_webrebra_1lrrvo3s286pz-fill" stroke="none" fill="#FFFFFF"><g><text style="font: 20px &quot;Shantell Sans&quot;, cursive; white-space: pre;" font-size="20px" font-family="'Shantell Sans', cursive"><tspan x="12" y="35.6" dominant-baseline="ideographic">Web </tspan><tspan x="12" y="59.6" dominant-baseline="ideographic">Rebrand</tspan></text></g></g></g><g id="g-root-appa_1cu9mhfs2jgn6-fill" data-item-order="1000000000" transform="translate(13.126708984375, 225.533935546875)"></g><g id="g-root-tx_ecommerc_18gbdars288ax-fill" data-item-order="1000000000" transform="translate(102.1402587890625, 246.91400146484375)"><g id="tx_ecommerc_18gbdars288ax-fill" stroke="none" fill="#FFFFFF"><g><text style="font: 20px &quot;Shantell Sans&quot;, cursive; white-space: pre;" font-size="20px" font-family="'Shantell Sans', cursive"><tspan x="12" y="35.6" dominant-baseline="ideographic">E-commerce</tspan></text></g></g></g><g id="g-root-circ_1hi7aqbs2m809-fill" data-item-order="1000000000" transform="translate(13.126708984375, 336.8009033203125)"></g><g id="g-root-tx_mobileap_1414c9fs285xe-fill" data-item-order="1000000000" transform="translate(102.1402587890625, 346.18096923828125)"><g id="tx_mobileap_1414c9fs285xe-fill" stroke="none" fill="#FFFFFF"><g><text style="font: 20px &quot;Shantell Sans&quot;, cursive; white-space: pre;" font-size="20px" font-family="'Shantell Sans', cursive"><tspan x="12" y="35.6" dominant-baseline="ideographic">Mobile </tspan><tspan x="12" y="59.6" dominant-baseline="ideographic">Application</tspan></text></g></g></g><g id="g-root-comp_1hitonns2ku10-stroke" data-item-order="1000000000" transform="translate(13.126708984375, 3)"><g id="comp_1hitonns2ku10-stroke" fill="none" stroke-linecap="round" stroke-linejoin="round" stroke-miterlimit="4" stroke="#FFFFFF" stroke-width="2"><g><path d="M 14.172511 41.989254C 15.563348 36.704071 13.894343 30.862556 14.172511 25.299208C 14.450678 22.239367 16.676018 19.457693 19.735859 19.735859C 22.7957 20.014027 25.577374 22.239367 25.299206 25.299208C 24.742872 30.862556 23.630203 36.704071 25.299206 41.989254M 25.299206 54.784954C 25.02104 57.010292 25.855541 59.235634 25.299206 61.460972C 25.577374 63.129978 24.464705 65.077148 24.186537 66.746155C 21.961199 68.693329 21.126696 71.474998 20.292194 74.256676C 20.292194 74.813004 19.457691 74.813004 19.179523 74.256676C 18.066854 71.474998 16.119682 69.527824 15.563348 66.746155C 15.28518 64.798981 13.616176 63.129978 14.450678 61.460972C 13.616176 59.235634 13.894343 57.010292 14.450678 54.784954M 25.299206 28.080881C 21.683029 27.524548 17.788687 28.080881 14.172511 28.080881M 25.02104 64.242645C 21.404863 63.68631 18.066854 64.798981 14.450678 64.242645M 52.003277 28.080881C 58.679295 39.763912 67.858818 50.334274 72.309494 63.129978C 72.865829 64.520813 72.587662 66.189819 71.474991 67.024323C 70.640488 67.30249 70.08416 67.580658 69.805992 67.858818C 68.415154 68.971497 67.024315 68.136986 65.911644 67.024323C 59.23563 53.672283 50.612442 41.154751 43.658257 28.080881M 70.640488 67.30249C 72.865829 69.527824 73.422165 72.865837 75.369339 75.369339M 35.313232 19.735859C 33.922398 15.285181 38.929409 11.669004 43.658257 11.390837C 48.108932 11.390837 50.890606 15.285181 52.003277 19.735859C 52.559612 22.517534 52.003277 25.299208 52.003277 28.080881C 46.718094 26.411879 40.876583 28.915384 35.313232 28.080881C 35.035065 25.299208 36.147732 22.239367 35.313232 19.735859M 35.313232 28.080881C 33.64423 33.64423 30.028051 38.929409 30.028051 45.049095C 29.471718 46.439934 27.802713 47.830769 26.411877 47.552601C 21.961199 46.161762 17.232351 47.552601 12.781673 47.552601C 11.947172 47.552601 11.390837 48.108936 11.390837 48.943439C 11.11267 50.334274 11.947172 52.003281 11.390837 53.394119C 11.11267 54.228619 11.947172 55.063122 12.781673 54.784954C 18.901356 53.394119 25.577374 55.897625 31.697058 54.784954C 33.366058 54.506786 35.035065 53.950451 35.5914 52.281448C 35.869568 43.658257 42.545586 36.425903 43.658257 28.080881"></path><path d="M 14.172511 41.989254L 14.172511 25.299208C 14.172511 22.226656 16.663307 19.735859 19.735859 19.735859C 22.808411 19.735859 25.299206 22.226656 25.299206 25.299208L 25.299206 41.989254M 25.299206 54.840591L 25.299206 61.460972C 25.233341 63.287842 24.80798 65.083809 24.047453 66.746155L 20.347828 74.117584C 20.014027 74.813004 19.457691 74.813004 19.12389 74.117584L 15.563348 66.746155C 14.795611 65.056854 14.37017 63.232178 14.311595 61.377525L 14.311594 54.840591M 25.299206 27.997431L 14.172511 27.997431M 24.909773 64.242645L 14.561945 64.242645M 51.97546 28.080881L 72.226051 63.102161C 73.024155 64.401695 72.627113 66.101532 71.335907 66.913048L 69.666908 67.914452C 68.360161 68.707512 66.658325 68.297585 65.85601 66.996506L 43.602619 28.053064M 70.612679 67.358124L 75.369339 75.369339M 35.285416 19.735859C 35.285416 15.127031 39.02161 11.390838 43.63044 11.390838C 48.239265 11.390838 51.97546 15.127031 51.97546 19.735859L 51.97546 28.080881L 35.285416 28.080881ZM 35.285416 28.080881L 30.083685 44.937828C 29.44129 46.460968 27.979836 47.478573 26.328426 47.552601L 12.781673 47.552601C 12.013535 47.552601 11.390837 48.175301 11.390837 48.943439L 11.390837 53.449749C 11.390837 54.217888 12.013535 54.840591 12.781673 54.840591L 31.808325 54.840591C 33.450977 54.764927 34.907566 53.761501 35.563583 52.253628L 43.63044 28.080881"></path></g></g></g><g id="g-root-tx_webdesig_13z8x03s286wx-stroke" data-item-order="1000000000" transform="translate(102.1402587890625, 24.38006591796875)"></g><g id="g-root-page_4lov0zs29lvu-stroke" data-item-order="1000000000" transform="translate(13.126708984375, 114.2669677734375)"><g id="page_4lov0zs29lvu-stroke" fill="none" stroke-linecap="round" stroke-linejoin="round" stroke-miterlimit="4" stroke="#FFFFFF" stroke-width="2"><g><path d="M 18.345022 11.390837C 16.39785 32.531563 16.119682 54.228619 18.345022 75.369339C 26.690044 76.203842 35.313232 73.422165 43.380089 75.369339C 42.823753 71.753166 43.658257 67.858818 43.380089 64.242645C 38.929409 65.633484 34.200562 63.68631 29.471718 64.242645C 29.471718 50.334274 29.471718 36.425903 29.471718 22.517534C 38.651241 21.683031 48.3871 24.742874 57.288456 22.517534C 56.175789 32.531563 58.122955 42.823757 57.288456 53.115948C 52.559612 52.83778 48.108932 53.394119 43.380089 53.115948C 44.492756 56.732124 42.267418 60.626472 43.380089 64.242645C 51.725109 63.408146 60.070129 63.408146 68.415154 64.242645C 65.355309 46.996265 69.527817 28.915384 68.415154 11.390837C 52.281445 15.285181 35.035065 13.059841 18.345022 11.390837"></path><path d="M 18.345022 11.390837L 18.345022 75.369339L 43.380089 75.369339L 43.380089 64.242645L 29.471718 64.242645L 29.471718 22.517534L 57.288456 22.517534L 57.288456 53.115948L 43.380089 53.115948L 43.380089 64.242645L 68.415154 64.242645L 68.415154 11.390837L 18.345022 11.390837Z"></path></g></g></g><g id="g-root-tx_webrebra_1lrrvo3s286pz-stroke" data-item-order="1000000000" transform="translate(102.1402587890625, 123.64703369140625)"></g><g id="g-root-appa_1cu9mhfs2jgn6-stroke" data-item-order="1000000000" transform="translate(13.126708984375, 225.533935546875)"><g id="appa_1cu9mhfs2jgn6-stroke" fill="none" stroke-linecap="round" stroke-linejoin="round" stroke-miterlimit="4" stroke="#FFFFFF" stroke-width="2"><g><path d="M 46.161762 65.633484C 36.704071 67.30249 26.411877 63.40815 16.954185 65.633484C 13.894343 66.467987 10.556334 62.851814 11.390837 60.070137C 15.841515 46.439934 7.774661 30.862558 11.390837 16.954185C 12.225339 13.894344 13.894343 10.834502 16.954185 11.390837C 34.200562 15.285181 52.837776 16.119684 69.805992 11.390837C 72.865829 10.556334 74.256668 14.172512 75.369339 16.954185C 78.985512 26.411879 72.587662 37.816742 75.369339 47.552605M 11.390837 25.29921C 32.531559 21.683031 53.950447 25.855543 75.369339 25.29921M 21.126696 17.788689C 21.404863 17.788689 21.961199 18.066856 21.961199 18.345024C 21.683029 18.62319 21.404863 19.179525 21.126696 19.179525C 20.848528 18.901358 20.57036 18.62319 20.57036 18.345024C 20.292194 18.066856 20.848528 17.510521 21.126696 17.788689M 29.471718 17.788689C 29.749884 17.788689 30.028051 18.066856 30.306221 18.345024C 30.306221 18.62319 29.749884 18.901358 29.471718 19.179525C 29.19355 19.179525 28.915382 18.62319 28.915382 18.345024C 28.637215 18.066856 29.19355 17.788689 29.471718 17.788689M 37.816738 17.788689C 38.094906 17.510521 38.651241 18.066856 38.651241 18.345024C 38.373074 18.62319 38.094906 19.179525 37.816738 19.179525C 37.53857 19.179525 36.982235 18.62319 37.260406 18.345024C 37.260406 18.066856 37.53857 17.788689 37.816738 17.788689M 53.115944 44.770931C 55.063118 45.049099 56.732121 44.770931 58.679295 44.770931C 58.957462 41.711086 57.844795 38.373077 56.453957 35.869572C 55.897621 34.756901 55.063118 33.366062 53.672279 33.644234C 51.725109 33.922401 49.499767 33.644234 47.552597 33.644234C 46.718094 35.869572 45.605427 38.373077 43.380089 37.816742C 41.154747 37.26041 39.485744 35.869572 39.207577 33.644234C 37.260406 33.922401 35.035065 33.087898 33.087894 33.644234C 31.697058 33.922401 30.306221 34.478737 30.306221 35.869572C 30.028051 38.929413 28.080881 41.711086 28.080881 44.770931C 30.028051 44.49276 31.697058 44.49276 33.64423 44.770931C 33.922398 48.387108 32.531559 52.281448 33.64423 55.897629C 36.704071 56.453964 40.320244 54.784958 43.380089 55.897629M 75.369339 75.369347C 72.031326 70.362335 65.633476 68.136993 62.851803 62.851814M 57.288456 69.527832C 57.566624 70.084167 58.122955 70.362335 58.679295 70.362335C 59.23563 70.362335 59.791962 70.084167 60.070129 69.527832C 60.626469 67.30249 62.017303 65.077148 62.851803 62.851814C 65.355309 62.573647 67.858818 61.460976 69.527817 60.070137C 70.08416 59.513802 70.362328 59.235638 70.362328 58.679302C 70.362328 58.122963 70.08416 57.844803 69.527817 57.288464C 64.520813 53.672287 56.732121 54.228622 52.003277 50.334278C 51.725109 49.777943 50.890606 50.05611 50.612442 50.612446C 50.056103 50.890614 50.056103 51.446949 50.33427 52.003284C 51.725109 58.122963 55.61945 63.40815 57.288456 69.527832"></path><path d="M 46.161762 65.633484L 16.954185 65.633484C 13.881633 65.633484 11.390837 63.142693 11.390837 60.070137L 11.390837 16.954185C 11.390837 13.881633 13.881633 11.390837 16.954185 11.390837L 69.805992 11.390837C 72.87854 11.390837 75.369339 13.881633 75.369339 16.954185L 75.369339 47.552605M 11.390837 25.29921L 75.369339 25.29921M 21.126696 17.649605C 21.510765 17.649605 21.822115 17.960955 21.822115 18.345024C 21.822115 18.729092 21.510765 19.040442 21.126696 19.040442C 20.742626 19.040442 20.431276 18.729092 20.431276 18.345024C 20.431276 17.960955 20.742626 17.649605 21.126696 17.649605M 29.471718 17.649605C 29.855785 17.649605 30.167135 17.960955 30.167135 18.345024C 30.167135 18.729092 29.855785 19.040442 29.471718 19.040442C 29.087648 19.040442 28.776299 18.729092 28.776299 18.345024C 28.776299 17.960955 29.087648 17.649605 29.471718 17.649605M 37.816738 17.649605C 38.200809 17.649605 38.512157 17.960955 38.512157 18.345024C 38.512157 18.729092 38.200809 19.040442 37.816738 19.040442C 37.432671 19.040442 37.121319 18.729092 37.121319 18.345024C 37.121319 17.960955 37.432671 17.649605 37.816738 17.649605M 53.115944 44.770931L 58.679295 44.770931L 56.423355 35.749958C 56.113316 34.512306 55.001026 33.644268 53.725132 33.644234L 47.552597 33.644234C 47.552597 35.948647 45.684502 37.816742 43.380089 37.816742C 41.075676 37.816742 39.207577 35.948647 39.207577 33.644234L 33.035042 33.644234C 31.759144 33.644268 30.64686 34.512306 30.336817 35.749958L 28.080881 44.770931L 33.64423 44.770931L 33.64423 55.897629L 43.380089 55.897629M 75.369339 75.369347L 62.851803 62.851814M 57.419197 69.527832C 57.632668 70.045647 58.135918 70.384895 58.695999 70.388542C 59.256084 70.392189 59.763702 70.059517 59.983898 69.544525L 62.851803 62.851814L 69.54451 59.983906C 70.059509 59.763714 70.392174 59.256092 70.388527 58.696011C 70.384888 58.135925 70.045639 57.632679 69.527817 57.419205L 52.031094 50.214664C 51.511635 50.000134 50.914112 50.119312 50.516708 50.516716C 50.119305 50.91412 50.000126 51.511642 50.214661 52.031097Z"></path></g></g></g><g id="g-root-tx_ecommerc_18gbdars288ax-stroke" data-item-order="1000000000" transform="translate(102.1402587890625, 246.91400146484375)"></g><g id="g-root-circ_1hi7aqbs2m809-stroke" data-item-order="1000000000" transform="translate(13.126708984375, 336.8009033203125)"><g id="circ_1hi7aqbs2m809-stroke" fill="none" stroke-linecap="round" stroke-linejoin="round" stroke-miterlimit="4" stroke="#FFFFFF" stroke-width="2"><g><path d="M 46.241238 60.070118C 51.009823 60.546978 55.778404 61.023834 58.162697 57.208969C 58.639553 56.732113 59.116413 56.255253 59.593269 55.778397C 60.546989 54.34782 61.023846 52.917244 60.070129 51.486671C 58.162697 50.532955 57.208977 48.148663 55.301544 46.718086C 54.347832 45.287514 51.963539 45.76437 51.009823 47.194946C 50.056103 48.625523 48.14867 48.625523 46.718094 47.671806C 43.380085 46.24123 40.995796 42.903221 39.08836 40.042072C 38.134644 38.611496 38.134644 36.704063 39.56522 35.750347C 40.995796 34.796631 40.518936 32.889198 40.04208 31.458622C 38.134644 30.504908 36.704067 28.120615 35.273495 26.690041C 34.319778 25.259466 31.935486 25.736322 30.98177 27.166897C 30.504911 27.643757 30.028051 28.120615 29.551193 28.597473C 25.736326 30.981766 24.305752 36.704063 26.690042 40.518932C 31.935486 48.148663 38.134644 55.778397 46.241238 60.070118M 12.384292 43.380081C 11.907434 60.546978 27.166901 69.607285 43.380085 74.37587C 59.593269 79.144447 77.71389 60.070118 74.375877 43.380081C 71.037872 26.690041 60.546989 11.907434 43.380085 12.384292C 26.213184 12.384292 13.814867 26.213182 12.384292 43.380081"></path><path d="M 46.43198 59.974747C 50.527187 61.706978 55.272617 60.588135 58.162697 57.208973L 59.640957 55.730709C 60.977146 54.658321 61.229595 52.722858 60.213184 51.343613L 55.444603 46.575031C 54.065357 45.55862 52.12989 45.811069 51.057507 47.147259L 51.057507 47.147259C 49.985119 48.483448 48.049656 48.735901 46.67041 47.71949L 39.040676 40.089756C 38.024265 38.71051 38.276718 36.775047 39.612904 35.70266L 39.612904 35.70266C 40.949093 34.630272 41.201546 32.694813 40.185135 31.315565L 35.41655 26.546982C 34.037304 25.530573 32.101841 25.783024 31.029453 27.119211L 29.551193 28.597473C 26.185602 31.495813 25.069021 36.231659 26.785416 40.32819C 31.62079 48.391621 38.368542 55.139378 46.43198 59.974751ZM 12.384292 43.380081C 12.384293 60.498585 26.261583 74.37587 43.380089 74.37587C 60.498592 74.37587 74.375877 60.498585 74.375877 43.380081C 74.375877 26.26158 60.498592 12.384293 43.380089 12.384293C 26.261583 12.384293 12.384293 26.26158 12.384293 43.380081"></path></g></g></g><g id="g-root-tx_mobileap_1414c9fs285xe-stroke" data-item-order="1000000000" transform="translate(102.1402587890625, 346.18096923828125)"></g></g></g></svg>