<?xml version="1.0" encoding="utf-8" standalone="yes"?>
<!DOCTYPE svg PUBLIC "-//W3C//DTD SVG 1.1//EN" "http://www.w3.org/Graphics/SVG/1.1/DTD/svg11.dtd">
<svg width="692" height="492" viewBox="0 0 692 492" style="fill:none;stroke:none;fill-rule:evenodd;clip-rule:evenodd;stroke-linecap:round;stroke-linejoin:round;stroke-miterlimit:1.5;" version="1.1" xmlns="http://www.w3.org/2000/svg" xmlns:xlink="http://www.w3.org/1999/xlink"><style id="fontImports">@import url("https://fonts.googleapis.com/css2?family=Roboto:wght@400;700&amp;display=block");</style><rect id="" x="0" y="0" width="691.604" height="491.202" style="fill: #2c2c2c;"></rect><g id="items" style="isolation: isolate"><g id="blend" style="mix-blend-mode:normal"><g id="g-root-4.cu_sy_4j7o00sma688-fill" data-item-order="999900181" transform="translate(190.80874633789062, 104.757080078125)"><g id="4.cu_sy_4j7o00sma688-fill" stroke="none" fill="#000000"><g><path d="M 30.948004 132.093826C 3.017324 104.163361 3.017324 58.878788 30.948004 30.947996C 58.878696 3.017317 104.163353 3.017317 132.093842 30.947996L 153.768723 52.622173L 117.644241 88.745804L 95.970512 67.07164C 87.990257 59.091404 75.051788 59.091404 67.071671 67.07164C 59.091412 75.05188 59.091412 87.99025 67.071671 95.97049L 153.768723 182.666855L 117.644241 218.790283L 30.948004 132.093826Z"></path></g></g></g><g id="g-root-3.cu_sy_3e5vksma70h-fill" data-item-order="999900185" transform="translate(190.80923461914062, 262.97509765625)"><g id="3.cu_sy_3e5vksma70h-fill" stroke="none" fill="#000000"><g><path d="M 132.093826 132.819885C 104.163368 160.750656 58.878777 160.750656 30.948002 132.819885C 3.017323 104.889503 3.017323 59.604954 30.948002 31.674185L 52.622177 10.000047L 88.745827 46.123653L 67.071648 67.797829C 59.091396 75.778046 59.091396 88.716415 67.071648 96.696663C 75.051903 104.676888 87.990273 104.676888 95.970497 96.696663L 182.66684 10.000014L 218.790298 46.123653L 132.093826 132.819885Z"></path></g></g></g><g id="g-root-2.cu_sy_1q8v7lssma7m2-fill" data-item-order="999900189" transform="translate(349.02667236328125, 197.9525146484375)"><g id="2.cu_sy_1q8v7lssma7m2-fill" stroke="none" fill="#000000"><g><path d="M 132.819916 96.696671C 160.750687 124.627251 160.750687 169.911713 132.819916 197.842499C 104.889526 225.77327 59.604965 225.77327 31.674189 197.842499L 10.000012 176.16864L 46.123661 140.045212L 67.797836 161.71907C 75.777962 169.698975 88.716431 169.698975 96.696686 161.71907C 104.676903 153.739136 104.676903 140.800858 96.696686 132.819901L 10.000012 46.123646L 46.123661 9.999999L 132.819916 96.696671Z"></path></g></g></g><g id="g-root-1.cu_sy_1lt1phcsma8eb-fill" data-item-order="999900193" transform="translate(284.0042724609375, 104.7572021484375)"><g id="1.cu_sy_1lt1phcsma8eb-fill" stroke="none" fill="#000000"><g><path d="M 96.696686 30.947992C 124.627266 3.017317 169.911728 3.017317 197.842499 30.947992C 225.773285 58.87878 225.773285 104.163353 197.842499 132.093811L 176.168655 153.768707L 140.045227 117.644234L 161.719086 95.970482C 169.69899 87.990242 169.69899 75.051773 161.719086 67.07164C 153.739151 59.0914 140.800873 59.0914 132.819916 67.07164L 46.123661 153.768707L 10.000013 117.644234L 96.696686 30.947992Z"></path></g></g></g><g id="g-root-tx_1q6bzxdsc3le4-fill" data-item-order="1000000000" transform="translate(216.51934814453125, 2)"><g id="tx_1q6bzxdsc3le4-fill" stroke="none" fill="#1AC6FF"><g><text style="font: 25px Roboto, sans-serif; white-space: pre;" font-size="25px" font-family="Roboto, sans-serif"><tspan x="44.82" y="39.6" dominant-baseline="ideographic">WEB SERVICES</tspan></text></g></g></g><g id="g-root-tx_mobileap_dg3mf4sma7lt-fill" data-item-order="1000000000" transform="translate(48.941650390625, 68.39892578125)"><g id="tx_mobileap_dg3mf4sma7lt-fill" stroke="none" fill="#00b9ff"><g><text style="font: bold 20px Roboto, sans-serif; white-space: pre;" font-weight="bold" font-size="20px" font-family="Roboto, sans-serif"><tspan x="54.49" y="34" dominant-baseline="ideographic">Mobile </tspan><tspan x="14.16" y="58" dominant-baseline="ideographic">Application</tspan></text></g></g></g><g id="g-root-tx_webdesig_1lux4qosma7es-fill" data-item-order="1000000000" transform="translate(514.6622924804688, 79.69879150390625)"><g id="tx_webdesig_1lux4qosma7es-fill" stroke="none" fill="#00b9ff"><g><text style="font: bold 20px Roboto, sans-serif; white-space: pre;" font-weight="bold" font-size="20px" font-family="Roboto, sans-serif"><tspan x="12" y="34" dominant-baseline="ideographic">Web Design</tspan></text></g></g></g><g id="g-root-tx_creating_qrk4sgsma60w-fill" data-item-order="1000000000" transform="translate(513.6039428710938, 119.199462890625)"><g id="tx_creating_qrk4sgsma60w-fill" stroke="none" fill="#ffffff"><g><text style="font: 20px Roboto, sans-serif; white-space: pre;" font-size="20px" font-family="Roboto, sans-serif"><tspan x="12" y="34" dominant-baseline="ideographic">Creating visually </tspan><tspan x="12" y="58" dominant-baseline="ideographic">appealing and </tspan><tspan x="12" y="82" dominant-baseline="ideographic">engaging </tspan><tspan x="12" y="106" dominant-baseline="ideographic">websites</tspan></text></g></g></g><g id="g-root-tx_designin_18i7o74sma6th-fill" data-item-order="1000000000" transform="translate(2, 143.89959716796875)"><g id="tx_designin_18i7o74sma6th-fill" stroke="none" fill="#ffffff"><g><text style="font: 20px Roboto, sans-serif; white-space: pre;" font-size="20px" font-family="Roboto, sans-serif"><tspan x="37.61" y="34" dominant-baseline="ideographic">Designing and </tspan><tspan x="22.73" y="58" dominant-baseline="ideographic">building mobile-</tspan><tspan x="11.51" y="82" dominant-baseline="ideographic">friendly solutions</tspan></text></g></g></g><g id="g-root-tx_ecommerc_4kgm68sma8ei-fill" data-item-order="1000000000" transform="translate(38, 333.70159912109375)"><g id="tx_ecommerc_4kgm68sma8ei-fill" stroke="none" fill="#00b9ff"><g><text style="font: bold 20px Roboto, sans-serif; white-space: pre;" font-weight="bold" font-size="20px" font-family="Roboto, sans-serif"><tspan x="13.46" y="34" dominant-baseline="ideographic">E-commerce</tspan></text></g></g></g><g id="g-root-tx_webrebra_1qaqmv4sma6mj-fill" data-item-order="1000000000" transform="translate(513.6039428710938, 333.70159912109375)"><g id="tx_webrebra_1qaqmv4sma6mj-fill" stroke="none" fill="#00b9ff"><g><text style="font: bold 20px Roboto, sans-serif; white-space: pre;" font-weight="bold" font-size="20px" font-family="Roboto, sans-serif"><tspan x="12" y="34" dominant-baseline="ideographic">Web Rebrand</tspan></text></g></g></g><g id="g-root-tx_developi_zmkny8sma7m6-fill" data-item-order="1000000000" transform="translate(2, 373.2022705078125)"><g id="tx_developi_zmkny8sma7m6-fill" stroke="none" fill="#ffffff"><g><text style="font: 20px Roboto, sans-serif; white-space: pre;" font-size="20px" font-family="Roboto, sans-serif"><tspan x="65.66" y="34" dominant-baseline="ideographic">Developing </tspan><tspan x="47.48" y="58" dominant-baseline="ideographic">platforms for </tspan><tspan x="20.16" y="82" dominant-baseline="ideographic">online sales and </tspan><tspan x="53.38" y="106" dominant-baseline="ideographic">transactions</tspan></text></g></g></g><g id="g-root-tx_refreshi_v6r5tssma8ef-fill" data-item-order="1000000000" transform="translate(513.5233154296875, 373.2022705078125)"><g id="tx_refreshi_v6r5tssma8ef-fill" stroke="none" fill="#ffffff"><g><text style="font: 20px Roboto, sans-serif; white-space: pre;" font-size="20px" font-family="Roboto, sans-serif"><tspan x="12" y="34" dominant-baseline="ideographic">Refreshing and </tspan><tspan x="12" y="58" dominant-baseline="ideographic">modernising </tspan><tspan x="12" y="82" dominant-baseline="ideographic">brand identities </tspan><tspan x="12" y="106" dominant-baseline="ideographic">online</tspan></text></g></g></g><g id="g-root-4.cu_sy_4j7o00sma688-stroke" data-item-order="999900181" transform="translate(190.80874633789062, 104.757080078125)"><g id="4.cu_sy_4j7o00sma688-stroke" fill="none" stroke-linecap="round" stroke-linejoin="round" stroke-miterlimit="4" stroke="#1AC6FF" stroke-width="2"><g><path d="M 30.948004 132.094147C 3.017324 104.163361 3.017324 58.878788 30.948004 30.947996C 58.878696 3.017317 104.163353 3.017317 132.094162 30.947996L 153.768311 52.622173L 117.644661 88.745804L 95.970512 67.07164C 87.990257 59.091404 75.051788 59.091404 67.071671 67.07164C 59.091412 75.05188 59.091412 87.99025 67.071671 95.97049L 153.768311 182.667145L 117.644661 218.790802L 30.948004 132.094147Z"></path></g></g></g><g id="g-root-3.cu_sy_3e5vksma70h-stroke" data-item-order="999900185" transform="translate(190.80923461914062, 262.97509765625)"><g id="3.cu_sy_3e5vksma70h-stroke" fill="none" stroke-linecap="round" stroke-linejoin="round" stroke-miterlimit="4" stroke="#1AC6FF" stroke-width="2"><g><path d="M 132.094147 132.820313C 104.163368 160.750977 58.878777 160.750977 30.948002 132.820313C 3.017323 104.889503 3.017323 59.604954 30.948002 31.674185L 52.622177 10.000014L 88.745827 46.123653L 67.071648 67.797829C 59.091396 75.778046 59.091396 88.716415 67.071648 96.696663C 75.051903 104.676888 87.990273 104.676888 95.970497 96.696663L 182.667175 10.000014L 218.790817 46.123653L 132.094147 132.820313Z"></path></g></g></g><g id="g-root-2.cu_sy_1q8v7lssma7m2-stroke" data-item-order="999900189" transform="translate(349.02667236328125, 197.9525146484375)"><g id="2.cu_sy_1q8v7lssma7m2-stroke" fill="none" stroke-linecap="round" stroke-linejoin="round" stroke-miterlimit="4" stroke="#1AC6FF" stroke-width="2"><g><path d="M 132.820328 96.696671C 160.751007 124.627449 160.751007 169.912033 132.820328 197.842819C 104.889526 225.773499 59.604866 225.773499 31.674189 197.842819L 10.000012 176.16864L 46.123661 140.044983L 67.797836 161.719162C 75.777962 169.699387 88.716431 169.699387 96.696686 161.719162C 104.676903 153.738907 104.676903 140.800446 96.696686 132.820313L 10.000012 46.123646L 46.123661 9.999999L 132.820328 96.696671Z"></path></g></g></g><g id="g-root-1.cu_sy_1lt1phcsma8eb-stroke" data-item-order="999900193" transform="translate(284.0042724609375, 104.7572021484375)"><g id="1.cu_sy_1lt1phcsma8eb-stroke" fill="none" stroke-linecap="round" stroke-linejoin="round" stroke-miterlimit="4" stroke="#1AC6FF" stroke-width="2"><g><path d="M 96.696686 30.947992C 124.627464 3.017317 169.912048 3.017317 197.842834 30.947992C 225.773483 58.87878 225.773483 104.163353 197.842834 132.094131L 176.168655 153.76828L 140.044998 117.644653L 161.719177 95.970482C 169.699402 87.990242 169.699402 75.051872 161.719177 67.07164C 153.738922 59.0914 140.800552 59.0914 132.820328 67.07164L 46.123661 153.76828L 10.000013 117.644653L 96.696686 30.947992Z"></path></g></g></g><g id="g-root-tx_1q6bzxdsc3le4-stroke" data-item-order="1000000000" transform="translate(216.51934814453125, 2)"></g><g id="g-root-tx_mobileap_dg3mf4sma7lt-stroke" data-item-order="1000000000" transform="translate(48.941650390625, 68.39892578125)"></g><g id="g-root-tx_webdesig_1lux4qosma7es-stroke" data-item-order="1000000000" transform="translate(514.6622924804688, 79.69879150390625)"></g><g id="g-root-tx_creating_qrk4sgsma60w-stroke" data-item-order="1000000000" transform="translate(513.6039428710938, 119.199462890625)"></g><g id="g-root-tx_designin_18i7o74sma6th-stroke" data-item-order="1000000000" transform="translate(2, 143.89959716796875)"></g><g id="g-root-tx_ecommerc_4kgm68sma8ei-stroke" data-item-order="1000000000" transform="translate(38, 333.70159912109375)"></g><g id="g-root-tx_webrebra_1qaqmv4sma6mj-stroke" data-item-order="1000000000" transform="translate(513.6039428710938, 333.70159912109375)"></g><g id="g-root-tx_developi_zmkny8sma7m6-stroke" data-item-order="1000000000" transform="translate(2, 373.2022705078125)"></g><g id="g-root-tx_refreshi_v6r5tssma8ef-stroke" data-item-order="1000000000" transform="translate(513.5233154296875, 373.2022705078125)"></g></g></g></svg>